# xmcd CD database file
#
# Track frame offsets:
#	150
#	6956
#	10192
#	35209
#	59922
#	87334
#	111900
#	141042
#	165924
#	188304
#	218033
#	241036
#	271207
#	297879
#
# Disc length: 4303 seconds
#
# Revision: 0
# Processed by: cddbd v1.5.1PL0 Copyright (c) Steve Scherf et al.
# Submitted via: CDex 1.51
#
DISCID=bc10cd0e
DTITLE=akakage - HERE COMES THE AKAKAGE!
DYEAR=2004
DGENRE=Pop
TTITLE0=Do you knwo me?
TTITLE1=How are you?
TTITLE2=Lodgers
TTITLE3=Little A's thing
TTITLE4=Kiss me baby
TTITLE5=Here comes the akakage
TTITLE6=What kind of music?
TTITLE7=She is a pretty girl
TTITLE8=The sound is ...A.K.K.G.
TTITLE9=Heat!
TTITLE10=Electric french man
TTITLE11=Impression
TTITLE12=Transpacific
TTITLE13=The tide is high
EXTD=YEAR: 2004
EXTT0=
EXTT1=
EXTT2=
EXTT3=
EXTT4=
EXTT5=
EXTT6=
EXTT7=
EXTT8=
EXTT9=
EXTT10=
EXTT11=
EXTT12=
EXTT13=
PLAYORDER=
